<mxfile host="app.diagrams.net" agent="Mozilla/5.0 (Windows NT 10.0; Win64; x64) AppleWebKit/537.36 (KHTML, like Gecko) Chrome/134.0.0.0 Safari/537.36" version="24.8.6">
  <diagram name="Page-1" id="vJ9msExYez2PfhHNTedl">
    <mxGraphModel dx="1434" dy="772" grid="1" gridSize="10" guides="1" tooltips="1" connect="1" arrows="1" fold="1" page="1" pageScale="1" pageWidth="850" pageHeight="1100" math="0" shadow="0">
      <root>
        <mxCell id="0" />
        <mxCell id="1" parent="0" />
        <mxCell id="YMgWz04EDcFaskVMTQV5-2" value="Data Flow Diagram" style="rounded=0;whiteSpace=wrap;html=1;" parent="1" vertex="1">
          <mxGeometry x="40" y="40" width="760" height="40" as="geometry" />
        </mxCell>
        <mxCell id="D2kK4QuqPIGLLuFjaRP0-16" style="edgeStyle=orthogonalEdgeStyle;rounded=0;orthogonalLoop=1;jettySize=auto;html=1;exitX=1;exitY=0.5;exitDx=0;exitDy=0;entryX=0;entryY=0.5;entryDx=0;entryDy=0;" edge="1" parent="1" source="D2kK4QuqPIGLLuFjaRP0-2" target="D2kK4QuqPIGLLuFjaRP0-14">
          <mxGeometry relative="1" as="geometry">
            <mxPoint x="250" y="150" as="targetPoint" />
          </mxGeometry>
        </mxCell>
        <mxCell id="D2kK4QuqPIGLLuFjaRP0-17" value="Login and Navigate" style="edgeLabel;html=1;align=center;verticalAlign=middle;resizable=0;points=[];" vertex="1" connectable="0" parent="D2kK4QuqPIGLLuFjaRP0-16">
          <mxGeometry x="-0.1111" y="-2" relative="1" as="geometry">
            <mxPoint as="offset" />
          </mxGeometry>
        </mxCell>
        <mxCell id="D2kK4QuqPIGLLuFjaRP0-2" value="Requester" style="ellipse;whiteSpace=wrap;html=1;" vertex="1" parent="1">
          <mxGeometry y="137.5" width="120" height="40" as="geometry" />
        </mxCell>
        <mxCell id="D2kK4QuqPIGLLuFjaRP0-5" value="ATEM" style="rounded=0;whiteSpace=wrap;html=1;" vertex="1" parent="1">
          <mxGeometry x="1100" y="130" width="120" height="60" as="geometry" />
        </mxCell>
        <mxCell id="D2kK4QuqPIGLLuFjaRP0-13" value="ServiceNow" style="swimlane;whiteSpace=wrap;html=1;" vertex="1" parent="1">
          <mxGeometry x="250" y="90" width="760" height="720" as="geometry" />
        </mxCell>
        <mxCell id="D2kK4QuqPIGLLuFjaRP0-24" value="" style="edgeStyle=orthogonalEdgeStyle;rounded=0;orthogonalLoop=1;jettySize=auto;html=1;" edge="1" parent="D2kK4QuqPIGLLuFjaRP0-13" source="D2kK4QuqPIGLLuFjaRP0-14" target="D2kK4QuqPIGLLuFjaRP0-22">
          <mxGeometry relative="1" as="geometry" />
        </mxCell>
        <mxCell id="D2kK4QuqPIGLLuFjaRP0-25" value="Submit" style="edgeLabel;html=1;align=center;verticalAlign=middle;resizable=0;points=[];" vertex="1" connectable="0" parent="D2kK4QuqPIGLLuFjaRP0-24">
          <mxGeometry x="0.0353" y="-3" relative="1" as="geometry">
            <mxPoint as="offset" />
          </mxGeometry>
        </mxCell>
        <mxCell id="D2kK4QuqPIGLLuFjaRP0-14" value="ServiceNow Portal &amp;gt; ATEM Catalogs" style="whiteSpace=wrap;html=1;align=center;" vertex="1" parent="D2kK4QuqPIGLLuFjaRP0-13">
          <mxGeometry x="30" y="30" width="120" height="75" as="geometry" />
        </mxCell>
        <mxCell id="D2kK4QuqPIGLLuFjaRP0-22" value="ATEM Request table" style="shape=cylinder3;whiteSpace=wrap;html=1;boundedLbl=1;backgroundOutline=1;size=15;" vertex="1" parent="D2kK4QuqPIGLLuFjaRP0-13">
          <mxGeometry x="30" y="160" width="120" height="60" as="geometry" />
        </mxCell>
        <mxCell id="D2kK4QuqPIGLLuFjaRP0-29" value="ATEM Location table" style="shape=cylinder3;whiteSpace=wrap;html=1;boundedLbl=1;backgroundOutline=1;size=15;" vertex="1" parent="D2kK4QuqPIGLLuFjaRP0-13">
          <mxGeometry x="575" y="150" width="130" height="60" as="geometry" />
        </mxCell>
        <mxCell id="D2kK4QuqPIGLLuFjaRP0-28" value="ATEM Employee table" style="shape=cylinder3;whiteSpace=wrap;html=1;boundedLbl=1;backgroundOutline=1;size=15;" vertex="1" parent="D2kK4QuqPIGLLuFjaRP0-13">
          <mxGeometry x="315" y="40" width="130" height="60" as="geometry" />
        </mxCell>
        <mxCell id="D2kK4QuqPIGLLuFjaRP0-37" value="" style="edgeStyle=orthogonalEdgeStyle;rounded=0;orthogonalLoop=1;jettySize=auto;html=1;" edge="1" parent="D2kK4QuqPIGLLuFjaRP0-13" source="D2kK4QuqPIGLLuFjaRP0-31" target="D2kK4QuqPIGLLuFjaRP0-28">
          <mxGeometry relative="1" as="geometry" />
        </mxCell>
        <mxCell id="D2kK4QuqPIGLLuFjaRP0-41" value="Insert/Update" style="edgeLabel;html=1;align=center;verticalAlign=middle;resizable=0;points=[];" vertex="1" connectable="0" parent="D2kK4QuqPIGLLuFjaRP0-37">
          <mxGeometry x="-0.125" y="2" relative="1" as="geometry">
            <mxPoint as="offset" />
          </mxGeometry>
        </mxCell>
        <mxCell id="D2kK4QuqPIGLLuFjaRP0-39" value="" style="edgeStyle=orthogonalEdgeStyle;rounded=0;orthogonalLoop=1;jettySize=auto;html=1;" edge="1" parent="D2kK4QuqPIGLLuFjaRP0-13" source="D2kK4QuqPIGLLuFjaRP0-31" target="D2kK4QuqPIGLLuFjaRP0-29">
          <mxGeometry relative="1" as="geometry" />
        </mxCell>
        <mxCell id="D2kK4QuqPIGLLuFjaRP0-40" value="Insert/Update" style="edgeLabel;html=1;align=center;verticalAlign=middle;resizable=0;points=[];" vertex="1" connectable="0" parent="D2kK4QuqPIGLLuFjaRP0-39">
          <mxGeometry x="-0.2" y="-1" relative="1" as="geometry">
            <mxPoint as="offset" />
          </mxGeometry>
        </mxCell>
        <mxCell id="D2kK4QuqPIGLLuFjaRP0-31" value="&lt;div style=&quot;&quot;&gt;&lt;span style=&quot;background-color: initial;&quot;&gt;Run scheduled Import to pull Employee and Location data from ATEM.&lt;/span&gt;&lt;/div&gt;" style="shape=parallelogram;perimeter=parallelogramPerimeter;whiteSpace=wrap;html=1;fixedSize=1;verticalAlign=middle;align=center;" vertex="1" parent="D2kK4QuqPIGLLuFjaRP0-13">
          <mxGeometry x="540" y="30" width="200" height="80" as="geometry" />
        </mxCell>
        <mxCell id="D2kK4QuqPIGLLuFjaRP0-26" style="edgeStyle=orthogonalEdgeStyle;rounded=0;orthogonalLoop=1;jettySize=auto;html=1;exitX=0.5;exitY=1;exitDx=0;exitDy=0;entryX=0;entryY=0.5;entryDx=0;entryDy=0;entryPerimeter=0;" edge="1" parent="1" source="D2kK4QuqPIGLLuFjaRP0-2" target="D2kK4QuqPIGLLuFjaRP0-22">
          <mxGeometry relative="1" as="geometry" />
        </mxCell>
        <mxCell id="D2kK4QuqPIGLLuFjaRP0-27" value="Update Request" style="edgeLabel;html=1;align=center;verticalAlign=middle;resizable=0;points=[];" vertex="1" connectable="0" parent="D2kK4QuqPIGLLuFjaRP0-26">
          <mxGeometry x="-0.0977" relative="1" as="geometry">
            <mxPoint x="1" as="offset" />
          </mxGeometry>
        </mxCell>
        <mxCell id="D2kK4QuqPIGLLuFjaRP0-34" style="edgeStyle=orthogonalEdgeStyle;rounded=0;orthogonalLoop=1;jettySize=auto;html=1;exitX=1;exitY=0.5;exitDx=0;exitDy=0;entryX=0;entryY=0.5;entryDx=0;entryDy=0;" edge="1" parent="1" source="D2kK4QuqPIGLLuFjaRP0-31" target="D2kK4QuqPIGLLuFjaRP0-5">
          <mxGeometry relative="1" as="geometry" />
        </mxCell>
        <mxCell id="D2kK4QuqPIGLLuFjaRP0-35" value="API Call" style="edgeLabel;html=1;align=center;verticalAlign=middle;resizable=0;points=[];" vertex="1" connectable="0" parent="D2kK4QuqPIGLLuFjaRP0-34">
          <mxGeometry x="0.0087" y="-2" relative="1" as="geometry">
            <mxPoint as="offset" />
          </mxGeometry>
        </mxCell>
      </root>
    </mxGraphModel>
  </diagram>
</mxfile>
